<svg xmlns="http://www.w3.org/2000/svg" viewBox="0 0 464.12 392"><title>CSS</title><path d="M87.32,322.12q0-19.24-14.48-29.41T30.71,282.54V229.68q27.86,0,42.24-9.73t14.37-27.86V120q0-33.84,21.45-47.66t75.41-13.82v49.76q-21.89.66-30.19,8.4t-8.29,22.78v66.12q-1.33,41.58-51.75,49.1v2.65q51.75,7.74,51.75,46.88v68.11q0,15,8.18,22.78t30.3,8.4v50q-54,0-75.41-13.82T87.32,391.78V322.12Z" transform="translate(-30.71 -58.51)" style="fill:#231f20"/><path d="M217.3,178.44q0-18.58,10-28.09t29-9.51q18.35,0,28.42,9.73t10.06,27.86q0,17.91-10.28,27.75T256.22,216q-18.58,0-28.75-9.73T217.3,178.44Zm0,160.88q0-18.58,10-28.09t29-9.51q18.35,0,28.42,9.73t10.06,27.86q0,17.47-10.17,27.53t-28.31,10.06q-18.58,0-28.75-9.84T217.3,339.31Z" transform="translate(-30.71 -58.51)" style="fill:#231f20"/><path d="M424.68,391.78q0,24.76-9.07,37.37t-30,18.47q-20.9,5.86-57.83,5.86v-50q21.89-.45,30.19-8t8.29-23.22V303.77q0-19,13-30.85t38.48-15.59v-2.65q-50.2-7.52-51.53-49.1V139.46q0-15.48-8.18-23t-30.3-8.18V58.51q36.93,0,57.94,5.86t30,18.58q9,12.72,9,37v72.54q0,18.58,13.6,27.86t43,9.29v52.85q-27.65,0-42.13,9.07t-14.48,30.52v69.66Z" transform="translate(-30.71 -58.51)" style="fill:#231f20"/></svg>