<svg xmlns="http://www.w3.org/2000/svg" viewBox="0 0 464.12 392"><title>Variations</title><polygon points="431.03 280.82 431.03 170.68 254.56 170.68 254.56 111.18 287.65 111.18 287.65 0 176.47 0 176.47 111.18 209.56 111.18 209.56 170.68 33.09 170.68 33.09 280.82 0 280.82 0 392 111.18 392 111.18 280.82 78.09 280.82 78.09 215.68 209.56 215.68 209.56 280.82 176.47 280.82 176.47 392 287.65 392 287.65 280.82 254.56 280.82 254.56 215.68 386.03 215.68 386.03 280.82 352.94 280.82 352.94 392 464.12 392 464.12 280.82 431.03 280.82" style="fill:#231f20"/></svg>